<?xml version="1.0" encoding="UTF-8"?>
<svg width="752pt" height="752pt" version="1.1" viewBox="0 0 752 752" xmlns="http://www.w3.org/2000/svg">
 <g>
  <path d="m389.26 513.81c-3.3164-1.8945-4.7344-6.1562-3.3164-9.4727l51.621-101.82c1.8945-3.3164 6.1562-4.7344 9.4727-3.3164 3.3164 1.8945 4.7344 6.1562 3.3164 9.4727l-51.148 101.82c-1.8945 3.3125-6.1562 4.7344-9.9453 3.3125z"/>
  <path d="m419.1 528.5c-3.3164-1.8945-4.7344-6.1562-3.3164-9.4727l51.621-101.35c1.8945-3.3164 6.1562-4.7344 9.4727-3.3164 3.3164 1.8945 4.7344 6.1562 3.3164 9.4727l-51.621 101.82c-1.8945 3.3164-6.1562 4.7383-9.4727 2.8438z"/>
  <path d="m448.46 543.65c-3.3164-1.8945-4.7344-6.1562-3.3164-9.4727l51.621-101.34c1.8945-3.3164 6.1562-4.7344 9.4727-3.3164 3.3164 1.8945 4.7344 6.1562 3.3164 9.4727l-51.625 101.35c-1.418 3.7852-5.6836 5.207-9.4688 3.3125z"/>
  <path d="m590.54 451.3-15.156-7.5781c3.3164-5.6836 4.2617-12.785 3.3164-18.941 9.9453-0.47266 19.891-6.1562 25.574-15.156 7.5781-12.785 5.2109-28.414-4.7344-38.832 4.7344-14.207-0.94531-30.781-14.207-38.832-9.4727-5.6836-20.836-6.1562-30.781-1.8945-2.8398-3.7891-6.1562-6.6289-9.9453-9.4727-5.2109-3.3164-10.891-4.7344-16.574-4.7344-2.3672-3.7891-5.2109-6.6289-8.5234-8.5234-6.1562-3.7891-12.785-4.7344-19.891-2.8398-6.6289 1.4219-12.312 5.6836-16.102 11.367-10.891-4.2617-23.68-2.3672-33.152 4.7344-0.94531-0.94531-2.3672-1.8945-3.3164-2.3672-6.1562-3.7891-13.734-4.7344-20.363-3.3164-7.1055 1.8945-13.262 6.1562-16.574 12.312-7.1055 11.367-4.2617 26.047 5.6836 34.57l-68.203 134.02c-8.0508 15.629-1.4219 34.57 13.734 42.148l83.824 42.621c15.629 8.0508 34.57 1.4219 42.148-13.734l14.207-27.941 35.52 17.996c3.3164 1.8945 7.5781 0.47266 9.4727-3.3164l47.355-92.344c1.8945-3.7891 0.47266-8.0508-3.3125-9.9453zm-115.55 108.92c-4.2617 8.5234-14.68 11.84-23.207 7.5781l-83.824-42.621c-8.5234-4.2617-11.84-14.68-7.5781-23.207l67.723-133.55c4.7344 0.94531 9.9453 0.47266 14.68-1.4219 2.8398 4.2617 6.6289 7.5781 10.891 10.418 5.6836 3.7891 12.785 5.2109 19.418 4.7344 0.94531 10.418 6.1562 19.891 15.629 25.574 3.3164 1.8945 6.6289 3.3164 10.418 3.7891 3.3164 7.1055 8.9961 12.785 15.629 17.051 2.8398 1.4219 5.2109 2.8398 8.5234 3.7891 0.47266 6.6289 3.3164 12.785 8.0508 17.523zm62.039-132.6c0.47266-3.3164-0.94531-6.1562-3.7891-7.5781-0.47266-0.47266-1.4219-0.47266-1.8945-0.47266-3.3164-0.47266-6.6289-1.8945-9.4727-3.3164-5.2109-3.3164-8.9961-8.0508-11.367-13.734-0.94531-2.8398-3.3164-4.2617-6.1562-4.7344-3.3164 0-6.1562-0.94531-8.5234-2.3672-7.1055-4.2617-10.418-12.312-8.0508-20.363 0.47266-2.3672 0-5.2109-1.8945-7.1055-1.8945-1.8945-4.7344-2.3672-7.1055-1.4219-5.6836 1.8945-12.312 1.4219-17.051-1.4219-3.7891-2.3672-7.1055-6.1562-8.5234-10.418-0.94531-2.3672-2.3672-3.7891-4.7344-4.2617-2.3672-0.47266-4.7344 0-6.6289 1.4219-4.2617 3.7891-10.418 3.7891-15.156 1.4219-6.1562-3.7891-8.0508-11.84-4.2617-17.996 1.8945-2.8398 4.7344-5.2109 8.0508-5.6836 3.3164-0.94531 6.6289-0.47266 9.9453 1.4219 1.8945 0.94531 3.3164 2.3672 4.2617 4.2617 1.4219 1.8945 3.3164 3.3164 5.6836 3.3164 2.3672 0 4.7344-0.94531 6.1562-2.8398 6.1562-8.0508 17.523-9.9453 26.047-4.7344 0.47266 0.47266 0.94531 0.47266 1.4219 0.94531 1.8945 1.4219 4.2617 1.8945 6.6289 0.94531 2.3672-0.94531 3.7891-2.8398 4.2617-5.2109 0.47266-1.4219 0.94531-2.8398 1.4219-3.7891 1.4219-2.8398 4.2617-4.7344 7.5781-5.2109 3.3164-0.94531 6.1562-0.47266 8.9961 1.4219 2.8398 1.8945 4.2617 4.2617 5.2109 6.1562 0.94531 3.3164 4.2617 5.2109 7.5781 4.7344 4.2617-0.47266 8.9961 0.47266 12.785 2.3672 3.7891 2.3672 6.6289 5.6836 8.0508 9.4727 0.94531 1.8945 2.3672 3.7891 4.7344 4.2617 2.3672 0.47266 4.7344 0 6.1562-1.4219 6.1562-5.2109 15.156-5.6836 21.785-1.4219 8.5234 5.2109 11.84 16.574 7.1055 25.102-1.8945 3.3164-0.94531 7.1055 2.3672 8.9961 7.5781 5.2109 9.9453 15.629 5.2109 23.68-4.7344 7.5781-14.207 10.418-22.73 6.6289-3.3164-1.4219-6.6289-0.47266-8.9961 2.3672-1.8945 2.8398-1.8945 6.6289 0.47266 8.9961 4.2617 4.7344 5.2109 11.84 1.8945 17.051-1.8945 3.3164-5.2109 5.6836-8.5234 6.6289-3.7891 0.94531-7.5781 0.47266-10.891-1.4219-6.1602-3.3047-8.5273-8.9883-8.0547-14.672zm0.47266 113.19-29.363-14.68 35.047-69.145c7.5781 1.8945 15.156 0.94531 21.785-2.3672l12.785 6.6289z"/>
  <path d="m335.75 396.84c3.7891-0.94531 6.1562-5.2109 4.7344-8.9961l-30.781-108.93c-0.94531-3.7891-5.2109-6.1562-8.9961-4.7344-3.7891 0.94531-6.1562 5.2109-4.7344 8.9961l30.781 109.4c1.418 3.3125 5.207 5.207 8.9961 4.2617z"/>
  <path d="m304.02 405.84c3.7891-0.94531 6.1562-5.2109 4.7344-8.9961l-30.781-109.4c-0.94531-3.7891-5.2109-6.1562-8.9961-4.7344-3.7891 0.94531-6.1562 5.2109-4.7344 8.9961l30.781 109.4c1.4219 3.7891 5.207 5.6836 8.9961 4.7344z"/>
  <path d="m272.29 414.84c3.7891-0.94531 6.1562-5.2109 4.7344-8.9961l-30.781-109.4c-0.94531-3.7891-5.2109-6.1562-8.9961-4.7344-3.7891 0.94531-6.1562 5.2109-4.7344 8.9961l30.781 109.4c0.94141 3.7852 5.207 5.6797 8.9961 4.7344z"/>
  <path d="m145.37 305.91 28.414 99.926c0.94531 3.7891 5.2109 6.1562 8.9961 4.7344l38.359-10.891 8.5234 30.309c4.7344 16.574 22.258 26.52 38.832 21.785l90.453-25.574c16.574-4.7344 26.52-22.258 21.785-38.832l-41.195-143.97c11.367-6.6289 16.574-20.363 12.312-33.152-2.3672-6.6289-7.5781-12.312-14.207-15.156-6.6289-2.8398-14.207-3.3164-20.836-0.94531-1.4219 0.47266-2.8398 0.94531-3.7891 1.8945-7.5781-8.9961-19.891-13.262-31.258-10.891-2.3672-6.1562-7.1055-11.367-13.262-14.207-6.6289-3.3164-13.73-3.7891-20.363-1.4219-3.7891 1.4219-7.5781 3.7891-10.418 7.1055-5.6836-0.94531-11.84-0.47266-17.523 1.4219-4.2617 1.4219-8.0508 4.2617-11.367 7.1055-8.5195-6.1602-19.887-8.0547-30.305-4.2656-14.68 5.2109-23.207 20.363-21.785 35.047-11.84 8.0508-17.051 23.207-11.84 36.938 3.7891 10.418 12.312 17.523 21.785 19.891-2.3672 6.1562-2.8398 12.785-0.47266 19.418l-16.102 4.7344c-3.7891 1.4219-5.6836 5.207-4.7383 8.9961zm63.934 0.94922c5.6836-3.7891 9.4727-9.4727 11.367-15.629 2.8398-0.47266 6.1562-0.94531 8.9961-2.3672 7.5781-2.8398 13.734-7.5781 18.469-13.734 3.7891 0 7.5781-0.47266 10.891-1.8945 9.9453-3.7891 17.523-11.84 20.363-21.785 6.6289 1.4219 13.262 1.4219 19.891-0.94531 4.7344-1.8945 8.9961-4.2617 12.312-8.0508 4.2617 2.8398 8.9961 4.2617 14.207 4.2617l40.734 144.44c2.3672 8.9961-2.8398 18.941-11.84 21.312l-90.453 25.574c-8.9961 2.3672-18.941-2.8398-21.312-11.84zm-11.367-9.9453c-3.7891 1.4219-7.5781 0.94531-10.891-0.47266-3.3164-1.4219-6.1562-4.2617-7.5781-8.0508-2.3672-5.6836 0-12.785 5.2109-16.574 2.8398-1.8945 3.7891-5.6836 2.3672-8.9961-1.4219-3.3164-4.7344-4.7344-8.0508-3.7891-8.9961 2.3672-17.996-2.3672-20.836-10.891-3.3164-8.5234 0.94531-18.469 9.4727-22.258 3.3164-1.4219 5.2109-5.2109 3.7891-8.5234-2.8398-9.4727 2.3672-19.891 11.84-23.68 7.5781-2.8398 16.102-0.47266 21.312 5.6836 1.4219 1.8945 3.7891 2.8398 5.6836 2.3672 2.3672 0 4.2617-1.4219 5.6836-3.3164 2.3672-3.7891 5.6836-6.1562 9.4727-8.0508 4.2617-1.4219 8.9961-1.4219 13.262 0 3.3164 0.94531 6.6289 0 8.5234-3.3164 0.94531-1.8945 2.8398-3.7891 6.1562-5.2109 2.832-0.003907 6.1484-0.003907 8.9922 1.418 2.8398 1.4219 5.2109 3.7891 6.1562 6.6289 0.47266 0.94531 0.47266 2.3672 0.47266 3.7891 0 2.3672 1.4219 4.7344 3.3164 5.6836 1.8945 1.4219 4.7344 1.4219 6.6289 0.47266 0.47266-0.47266 0.94531-0.47266 1.4219-0.47266 9.4727-3.3164 19.891 0.47266 24.625 9.4727 0.94531 1.8945 2.8398 3.3164 5.2109 3.7891 2.3672 0.47266 4.7344-0.47266 6.1562-2.3672 1.4219-1.4219 3.3164-2.8398 5.2109-3.3164 3.3164-1.4219 6.6289-0.94531 9.9453 0.47266 3.3164 1.4219 5.6836 4.2617 6.6289 7.1055 2.3672 6.6289-0.94531 14.207-7.5781 16.574-5.2109 1.8945-10.891 0.47266-14.68-4.2617-1.4219-1.8945-3.7891-2.8398-6.1562-2.8398s-4.2617 1.4219-5.6836 3.3164c-2.3672 3.7891-6.1562 7.1055-10.418 8.5234-5.6836 1.8945-11.84 1.4219-17.051-1.8945-2.3672-1.4219-5.2109-1.4219-7.5781 0-2.3672 1.4219-3.7891 3.7891-3.3164 6.6289 0.47266 8.0508-4.2617 15.629-11.84 18.469-2.8398 0.94531-5.6836 1.4219-8.9961 0.94531-2.8398-0.47266-5.6836 0.94531-7.1055 3.3164-3.3164 5.2109-8.0508 8.9961-13.734 11.367-3.3164 0.94531-6.6289 1.8945-9.9453 1.4219-0.94531 0-1.4219 0-1.8945 0.47266-2.8398 0.94531-5.2109 3.3164-5.2109 6.6289 0.47656 6.6289-3.3125 11.84-8.9961 13.734zm-36.938 11.84 13.734-3.7891c5.6836 4.7344 13.262 7.5781 20.836 6.6289l20.836 74.352-30.781 9z"/>
  <path d="m388.79 242.93c-3.7891 0-6.6289-2.8398-7.1055-6.6289l-3.3164-37.414c-0.47266-3.7891 2.3672-7.5781 6.6289-7.5781 3.7891-0.47266 7.5781 2.3672 7.5781 6.6289l3.3164 37.414c0.47266 3.7891-2.3672 7.5781-6.6289 7.5781h-0.47266z"/>
  <path d="m423.83 255.71c-1.4219 0-2.8398-0.47266-4.2617-1.4219-3.3164-2.3672-3.7891-6.6289-1.4219-9.9453l21.312-28.414c2.3672-3.3164 6.6289-3.7891 9.9453-1.4219 3.3164 2.3672 3.7891 6.6289 1.4219 9.9453l-21.312 28.414c-1.4219 1.8984-3.3164 2.8438-5.6836 2.8438z"/>
  <path d="m444.2 288.86c-3.7891 0-6.6289-2.8398-7.1055-6.1562-0.47266-3.7891 2.3672-7.5781 6.1562-8.0508l36.465-4.2617c3.7891-0.47266 7.5781 2.3672 8.0508 6.1562 0.47266 3.7891-2.3672 7.5781-6.1562 8.0508l-36.465 4.2617h-0.94531z"/>
 </g>
</svg>
