<?xml version="1.0" encoding="UTF-8"?>
<svg width="752pt" height="752pt" version="1.1" viewBox="0 0 752 752" xmlns="http://www.w3.org/2000/svg">
 <path d="m537.02 162.89h-322.04c-28.891 0-52.094 21.785-52.094 48.777v244.84c0 26.992 23.207 48.777 52.094 48.777h34.098v72.457c0 4.2617 2.8398 8.5234 7.1055 10.418 1.8945 0.94531 3.3164 0.94531 5.2109 0.94531 2.8398 0 5.6836-0.94531 8.0508-2.3672l107.5-81.457 160.07 0.003906c28.887 0 52.094-21.785 52.094-48.777v-244.84c0-26.992-23.207-48.777-52.094-48.777zm-220.69 213.11h-71.039v-93.293h68.668v16.574h-49.25v19.891h44.988v16.102h-45.465v24.152h51.621v16.574zm90.453 0h-19.418l-37.887-66.301v66.301h-17.996v-93.293h20.363l36.941 64.879v-64.879h17.996zm100.87 0h-13.258l-1.8945-11.84c-3.7891 4.2617-7.1055 7.5781-9.9453 9.4727-5.2109 3.3164-11.367 4.7344-18.941 4.7344-12.312 0-22.73-4.2617-30.309-12.785-8.0508-8.5234-12.312-20.363-12.312-35.52s4.2617-27.469 12.312-36.465c8.0508-8.9961 19.418-13.734 33.152-13.734 11.84 0 21.312 2.8398 28.414 8.9961 7.1055 6.1562 11.367 13.734 12.312 22.73h-19.418c-1.4219-6.1562-5.2109-10.891-10.891-13.262-3.3164-1.4219-6.6289-1.8945-10.891-1.8945-7.5781 0-13.734 2.8398-18.469 8.5234-4.7344 5.6836-7.1055 14.207-7.1055 25.574s2.8398 19.418 8.0508 24.152c5.2109 4.7344 11.367 7.1055 17.996 7.1055 6.6289 0 11.84-1.8945 16.102-5.6836 4.2617-3.7891 6.6289-8.5234 7.5781-14.68h-21.785v-15.629h38.832l-0.003906 50.203z" fill="#137a2f"/>
</svg>
