<?xml version="1.0" encoding="UTF-8"?>
<svg width="752pt" height="752pt" version="1.1" viewBox="0 0 752 752" xmlns="http://www.w3.org/2000/svg">
 <g fill="#9c2331">
  <path d="m537.02 162.89h-322.04c-28.891 0-52.094 21.785-52.094 48.777v244.84c0 26.992 23.207 48.777 52.094 48.777h34.098v72.457c0 4.2617 2.8398 8.5234 7.1055 10.418 1.8945 0.94531 3.3164 0.94531 5.2109 0.94531 2.8398 0 5.6836-0.94531 8.0508-2.3672l107.5-81.457 160.07 0.003906c28.887 0 52.094-21.785 52.094-48.777v-244.84c0-26.992-23.207-48.777-52.094-48.777zm-189.91 197.01c0 11.84-1.8945 20.836-6.1562 27.941-6.6289 11.84-18.941 17.523-36.465 17.523-17.523 0-29.363-4.7344-35.52-14.207s-8.9961-22.258-8.9961-38.359v-3.3164h27.469v3.3164c0 10.891 1.4219 17.996 3.3164 22.73 1.8945 4.2617 6.1562 6.6289 12.785 6.6289s10.418-2.3672 12.785-7.1055c1.4219-2.8398 1.8945-7.5781 1.8945-14.207l-0.003906-97.082h28.887zm120.29 42.148-8.9961-28.414h-50.676l-9.4727 28.414h-30.309l49.254-138.29h32.676l49.254 138.29z"/>
  <path d="m415.31 349.95h35.52l-17.523-54.461z"/>
 </g>
</svg>
