<?xml version="1.0" encoding="UTF-8"?>
<svg width="752pt" height="752pt" version="1.1" viewBox="0 0 752 752" xmlns="http://www.w3.org/2000/svg">
 <g fill="#ffb258">
  <path d="m482.75 331.09 24.965 68.594h-49.93z"/>
  <path d="m364.16 304.96c0-44.648 0-66.977 13.871-80.848 13.871-13.867 36.199-13.867 80.848-13.867h55.754c46.129 0 69.191 0 83.16 14.473 13.965 14.473 13.141 37.523 11.496 83.621l-5.0742 142.07c-1.5391 43.188-2.3125 64.781-16.074 78.059-13.762 13.277-35.367 13.277-78.582 13.277h-50.68c-44.648 0-66.977 0-80.848-13.871-13.871-13.871-13.871-36.195-13.871-80.844zm67.77 165.75h-37.797l69.258-190.3 35.273-9.457 72.703 199.75h-37.797l-12.93-35.52h-75.785z" fill-rule="evenodd"/>
  <path d="m145.13 281.29h76.957v-23.68l35.52-9.4727v33.152h71.039v35.52h-23.789c-1.3594 37.414-15.582 71.547-38.379 98.109 18.016 11.816 39.285 19.074 62.172 20.145l-0.007813 0.14062-9.2812 34.805c-29.594-2.7891-56.84-13.652-79.516-30.359-22.816 16.812-50.266 27.707-80.078 30.414l-8.7148-34.859-0.007812-0.14062c22.887-1.0703 44.156-8.3281 62.168-20.145-14.512-16.91-25.551-36.895-32.008-58.836l34.332-9.2031c5 16.57 13.371 31.68 24.309 44.531 17.27-20.289 28.133-46.199 29.465-74.602h-115.3z"/>
 </g>
</svg>
