<svg xmlns="http://www.w3.org/2000/svg" xmlns:xlink="http://www.w3.org/1999/xlink" version="1.1" width="256" height="256" viewBox="0 0 256 256" xml:space="preserve">

<defs>
</defs>
<g style="stroke: none; stroke-width: 0; stroke-dasharray: none; stroke-linecap: butt; stroke-linejoin: miter; stroke-miterlimit: 10; fill: none; fill-rule: nonzero; opacity: 1;" transform="translate(1.4065934065934016 1.4065934065934016) scale(2.81 2.81)" >
	<path d="M 0 68.798 v 11.914 c 0 1.713 1.401 3.114 3.114 3.114 h 0 c 3.344 0 4.805 -2.642 4.805 -2.642 L 8.14 29.281 l 2.739 -2.827 l 72.894 -2.977 v -1.482 c 0 -2.396 -1.942 -4.338 -4.338 -4.338 H 50.236 c -1.15 0 -2.254 -0.457 -3.067 -1.27 l -8.943 -8.943 c -0.813 -0.813 -1.917 -1.27 -3.067 -1.27 H 4.338 C 1.942 6.174 0 8.116 0 10.512 v 7.146 v 2.332 V 68.798" style="stroke: none; stroke-width: 1; stroke-dasharray: none; stroke-linecap: butt; stroke-linejoin: miter; stroke-miterlimit: 10; fill: rgb(224,173,49); fill-rule: nonzero; opacity: 1;" transform=" matrix(1 0 0 1 0 0) " stroke-linecap="round" />
	<path d="M 3.114 83.826 L 3.114 83.826 c 1.713 0 3.114 -1.401 3.114 -3.114 V 27.81 c 0 -2.393 1.94 -4.333 4.333 -4.333 h 75.107 c 2.393 0 4.333 1.94 4.333 4.333 v 51.684 c 0 2.393 -1.94 4.333 -4.333 4.333 C 85.667 83.826 3.114 83.826 3.114 83.826 z" style="stroke: none; stroke-width: 1; stroke-dasharray: none; stroke-linecap: butt; stroke-linejoin: miter; stroke-miterlimit: 10; fill: rgb(255,200,67); fill-rule: nonzero; opacity: 1;" transform=" matrix(1 0 0 1 0 0) " stroke-linecap="round" />
	<path d="M 50.767 72.475 h -5.534 c -1.192 0 -2.163 -0.97 -2.163 -2.162 v -0.824 c 0 -0.069 -0.037 -0.137 -0.084 -0.153 c -0.584 -0.202 -1.162 -0.442 -1.72 -0.714 c -0.042 -0.021 -0.112 -0.003 -0.158 0.043 l -0.591 0.591 c -0.842 0.843 -2.215 0.845 -3.058 0 l -3.913 -3.913 c -0.843 -0.843 -0.843 -2.216 0 -3.059 l 0.591 -0.591 c 0.045 -0.046 0.064 -0.114 0.044 -0.157 c -0.273 -0.559 -0.513 -1.137 -0.714 -1.719 c -0.017 -0.049 -0.084 -0.086 -0.154 -0.086 h -0.824 c -1.192 0 -2.162 -0.97 -2.162 -2.162 v -5.534 c 0 -1.192 0.97 -2.163 2.162 -2.163 h 0.824 c 0.07 0 0.137 -0.037 0.153 -0.084 c 0.201 -0.583 0.441 -1.161 0.715 -1.721 c 0.021 -0.043 0.001 -0.112 -0.044 -0.157 l -0.59 -0.591 c -0.408 -0.407 -0.634 -0.95 -0.634 -1.529 c 0 -0.578 0.225 -1.121 0.634 -1.529 l 3.913 -3.914 c 0.844 -0.843 2.215 -0.842 3.057 -0.001 l 0.592 0.592 c 0.046 0.045 0.115 0.067 0.156 0.044 c 0.561 -0.274 1.14 -0.514 1.722 -0.715 c 0.046 -0.016 0.084 -0.084 0.084 -0.154 V 39.29 c 0 -1.192 0.97 -2.163 2.163 -2.163 h 5.534 c 1.192 0 2.163 0.97 2.163 2.163 v 0.824 c 0 0.077 0.044 0.14 0.085 0.154 c 0.586 0.202 1.165 0.442 1.721 0.715 c 0.039 0.018 0.106 0.006 0.155 -0.044 l 0.592 -0.591 c 0.843 -0.842 2.214 -0.843 3.057 -0.001 l 3.914 3.915 c 0.408 0.408 0.634 0.951 0.634 1.529 c 0 0.579 -0.226 1.122 -0.635 1.53 l -0.588 0.589 c -0.047 0.047 -0.066 0.115 -0.046 0.157 c 0.273 0.56 0.515 1.14 0.715 1.723 c 0.016 0.046 0.084 0.083 0.153 0.083 h 0.824 c 1.192 0 2.163 0.971 2.163 2.163 v 5.534 c 0 1.192 -0.971 2.162 -2.163 2.162 h -0.823 c -0.07 0 -0.138 0.038 -0.154 0.086 c -0.201 0.582 -0.441 1.161 -0.715 1.72 c -0.021 0.041 -0.001 0.11 0.044 0.155 l 0.592 0.593 c 0.843 0.842 0.843 2.215 -0.001 3.058 l -3.913 3.913 c -0.844 0.843 -2.214 0.844 -3.058 0 l -0.591 -0.591 c -0.046 -0.046 -0.114 -0.064 -0.156 -0.044 c -0.561 0.273 -1.139 0.513 -1.721 0.714 c -0.042 0.016 -0.085 0.076 -0.085 0.154 v 0.824 C 52.93 71.505 51.959 72.475 50.767 72.475 z M 46.07 69.475 h 3.859 c 0.006 -1.348 0.851 -2.542 2.105 -2.976 c 0.467 -0.162 0.933 -0.355 1.384 -0.575 c 1.193 -0.585 2.637 -0.337 3.593 0.617 l 2.729 -2.729 c -0.953 -0.951 -1.202 -2.396 -0.617 -3.593 c 0.22 -0.45 0.413 -0.914 0.574 -1.382 c 0.435 -1.256 1.63 -2.101 2.977 -2.106 v -3.859 c -1.347 -0.005 -2.542 -0.85 -2.977 -2.104 c -0.161 -0.469 -0.354 -0.934 -0.574 -1.383 c -0.584 -1.195 -0.336 -2.639 0.617 -3.594 l -2.729 -2.729 c -0.953 0.953 -2.396 1.202 -3.594 0.617 c -0.446 -0.219 -0.911 -0.412 -1.382 -0.574 c -1.256 -0.434 -2.1 -1.629 -2.105 -2.976 H 46.07 c -0.006 1.347 -0.85 2.542 -2.104 2.976 c -0.469 0.162 -0.934 0.354 -1.384 0.575 c -1.195 0.584 -2.639 0.336 -3.593 -0.617 L 36.26 45.79 c 0.953 0.956 1.201 2.399 0.617 3.594 c -0.22 0.449 -0.413 0.914 -0.574 1.382 c -0.434 1.255 -1.628 2.1 -2.976 2.105 v 3.859 c 1.347 0.006 2.542 0.851 2.976 2.106 c 0.162 0.467 0.355 0.933 0.574 1.382 c 0.584 1.196 0.336 2.64 -0.617 3.594 l 2.729 2.729 c 0.953 -0.954 2.397 -1.202 3.594 -0.617 c 0.449 0.219 0.915 0.412 1.384 0.575 C 45.22 66.932 46.064 68.126 46.07 69.475 z M 60.331 45.198 c -0.001 0 -0.001 0.001 -0.002 0.002 L 60.331 45.198 z" style="stroke: none; stroke-width: 1; stroke-dasharray: none; stroke-linecap: butt; stroke-linejoin: miter; stroke-miterlimit: 10; fill: rgb(184,53,53); fill-rule: nonzero; opacity: 1;" transform=" matrix(1 0 0 1 0 0) " stroke-linecap="round" />
	<path d="M 48.008 63.301 c -2.253 0 -4.417 -0.888 -6.018 -2.489 c -1.762 -1.762 -2.66 -4.202 -2.462 -6.696 c 0.324 -4.115 3.672 -7.463 7.786 -7.787 c 2.503 -0.193 4.936 0.7 6.696 2.463 c 1.762 1.761 2.659 4.202 2.463 6.696 c -0.324 4.114 -3.672 7.462 -7.786 7.786 C 48.46 63.292 48.233 63.301 48.008 63.301 z M 47.989 49.302 c -0.146 0 -0.293 0.005 -0.439 0.017 c -2.659 0.21 -4.822 2.374 -5.032 5.033 c -0.127 1.617 0.453 3.198 1.593 4.339 c 1.14 1.14 2.722 1.723 4.339 1.593 l 0 0 c 2.659 -0.21 4.822 -2.373 5.032 -5.032 c 0.127 -1.617 -0.453 -3.199 -1.594 -4.339 C 50.853 49.875 49.451 49.302 47.989 49.302 z" style="stroke: none; stroke-width: 1; stroke-dasharray: none; stroke-linecap: butt; stroke-linejoin: miter; stroke-miterlimit: 10; fill: rgb(184,53,53); fill-rule: nonzero; opacity: 1;" transform=" matrix(1 0 0 1 0 0) " stroke-linecap="round" />
</g>
</svg>