<?xml version="1.0" encoding="UTF-8"?>
<svg width="752pt" height="752pt" version="1.1" viewBox="0 0 752 752" xmlns="http://www.w3.org/2000/svg">
 <g fill="#2749a6">
  <path d="m298.81 300.23c-1.8945-0.94531-5.2109-1.4219-8.9961-1.4219h-21.785l-0.003906 25.102h20.836c4.2617 0 7.1055-0.47266 9.4727-1.4219 3.7891-1.8945 5.6836-5.2109 5.6836-10.418 0-5.6797-1.8945-9.4688-5.207-11.84z"/>
  <path d="m537.02 162.89h-322.04c-28.891 0-52.094 21.785-52.094 48.777v244.84c0 26.992 23.207 48.777 52.094 48.777h34.098v72.457c0 4.2617 2.8398 8.5234 7.1055 10.418 1.8945 0.94531 3.3164 0.94531 5.2109 0.94531 2.8398 0 5.6836-0.94531 8.0508-2.3672l107.5-81.457 160.07 0.003906c28.887 0 52.094-21.785 52.094-48.777v-244.84c0-26.992-23.207-48.777-52.094-48.777zm-212.16 213.11h-21.785c-0.47266-1.8945-0.94531-3.7891-1.4219-5.2109-0.47266-2.8398-0.94531-5.2109-0.94531-8.0508v-8.5234c0-6.1562-0.94531-9.9453-3.3164-11.84-1.8945-1.8945-5.6836-2.8398-10.891-2.8398h-18.941l-0.003907 36.465h-18.941v-93.293h44.516c6.1562 0 11.367 0.94531 14.68 2.3672 3.3164 1.4219 6.1562 3.7891 8.5234 6.6289 1.8945 2.3672 3.3164 5.2109 4.7344 8.0508 0.94531 2.8398 1.8945 6.1562 1.8945 9.9453 0 4.2617-0.94531 8.9961-3.3164 13.262-2.3672 4.2617-6.1562 7.1055-10.891 8.9961 4.2617 1.8945 7.5781 4.2617 8.9961 7.5781 1.4219 3.3164 2.8398 8.0508 2.8398 14.68v6.1562c0 4.2617 0 7.1055 0.47266 8.5234 0.47266 2.3672 1.8945 4.2617 3.7891 5.2109zm92.348-35.992c0 9.9453-1.4219 17.523-4.7344 23.207-5.6836 9.9453-16.574 15.156-32.676 15.156-16.102 0-26.992-5.2109-32.676-15.156-3.3164-5.6836-4.7344-13.262-4.7344-23.207l-0.003906-57.301h19.891v57.305c0 6.6289 0.94531 10.891 2.3672 14.207 2.3672 5.2109 7.5781 8.0508 15.629 8.0508s12.785-2.8398 15.156-8.0508c1.4219-2.8398 2.3672-7.5781 2.3672-14.207l-0.003906-57.305h19.891v57.301zm81.93 29.836c-6.6289 5.6836-16.102 8.5234-27.941 8.5234-12.312 0-21.785-2.8398-28.887-8.5234-7.1055-5.6836-10.418-13.262-10.418-22.73h18.469c0.47266 4.2617 1.8945 7.5781 3.7891 9.4727 3.3164 3.7891 8.9961 5.6836 16.574 5.6836 4.7344 0 8.5234-0.47266 11.367-1.4219 5.6836-1.8945 8.5234-5.6836 8.5234-10.891 0-3.3164-1.4219-5.6836-4.2617-7.1055-2.8398-1.4219-7.1055-3.3164-12.785-4.2617l-9.9453-2.3672c-9.9453-2.3672-16.574-4.7344-20.363-7.1055-6.1562-4.2617-9.4727-10.891-9.4727-20.363 0-8.5234 2.8398-15.156 9.4727-20.836 6.1562-5.6836 15.156-8.5234 26.992-8.5234 9.9453 0 18.469 2.8398 25.574 8.0508 7.1055 5.2109 10.891 12.785 10.891 22.73h-18.941c-0.47266-5.6836-2.8398-9.4727-7.5781-11.84-3.3164-1.4219-7.1055-2.3672-11.84-2.3672-5.2109 0-9.4727 0.94531-12.312 2.8398-2.8398 1.8945-4.7344 4.7344-4.7344 8.5234 0 3.3164 1.4219 5.6836 4.7344 7.5781 1.8945 0.94531 6.1562 2.3672 12.312 3.7891l16.574 3.7891c7.1055 1.8945 12.785 3.7891 16.102 6.6289 5.6836 4.2617 8.5234 10.891 8.5234 18.941-0.47266 9-3.7891 16.102-10.418 21.785z"/>
 </g>
</svg>
