<?xml version="1.0" encoding="UTF-8"?>
<svg width="752pt" height="752pt" version="1.1" viewBox="0 0 752 752" xmlns="http://www.w3.org/2000/svg">
 <path d="m562.09 421.09c-4.9141 35.348-22.719 68.098-53.434 98.203-30.09 29.523-72.73 56.574-127.86 81.152-3.1836 1.4219-6.6641 1.3203-9.6172 0-55.125-24.578-97.762-51.629-127.86-81.152-31-30.418-48.875-63.523-53.562-99.281l-0.097657-1.5195-0.042968-200.09c0-6.5352 5.3008-11.836 11.836-11.836 12.176 0 23.23-4.957 31.199-12.941 8.0117-8.0547 12.984-19.109 12.984-31.258 0-6.5352 5.3008-11.836 11.836-11.836h237c6.5352 0 11.836 5.3008 11.836 11.836 0 12.148 4.9727 23.199 12.984 31.199 8.0117 8.0117 19.066 12.984 31.199 12.984 6.5352 0 11.836 5.3008 11.836 11.836v200.09c0 0.89453-0.097656 1.7617-0.28516 2.6016zm-174.25-206.09v310.65c21.625-11.281 44.512-25.191 63.977-41.629 23.23-19.637 41.484-42.836 46.074-69.176v-157.5c-8.9219-4.957-17.051-11.098-24.152-18.199-7.0898-7.0898-13.242-15.23-18.199-24.152h-67.715zm-5.7383 339.89c-1.7891 1.0781-3.8633 1.6914-6.1094 1.6914-2.2305 0-4.3203-0.625-6.1094-1.6914-27.391-13.184-58.906-30.816-84.961-52.84-27.121-22.93-48.52-50.707-54.117-83.496-0.24219-0.95312-0.38281-1.9609-0.38281-2.9844v-165.42c0.058594-4.4336 2.5703-8.6797 6.8477-10.684 8.9922-4.207 17.207-10.016 24.254-17.062 6.8047-6.8047 12.445-14.691 16.609-23.316 1.6641-4.5312 6.0234-7.7734 11.125-7.7734h173.48c4.4336 0.058594 8.6797 2.5703 10.684 6.8477 4.207 8.9922 10.016 17.207 17.062 24.254 6.8047 6.8047 14.691 12.461 23.328 16.621 4.5312 1.6641 7.7734 6.0234 7.7734 11.125v165.42l-0.18359 1.8477c-5.3008 33.289-26.867 61.434-54.316 84.633-26.07 22.023-57.57 39.641-84.977 52.84zm-17.945-29.238v-310.65h-67.715c-4.957 8.9219-11.098 17.051-18.188 24.137-7.1055 7.1055-15.215 13.242-24.152 18.199v157.5c4.6016 26.34 22.848 49.527 46.074 69.164 19.449 16.438 42.34 30.348 63.961 41.629zm127.95-23.188c26.867-26.34 42.383-54.5 46.586-84.477v-188.78c-13.953-2.4727-26.453-9.25-36.102-18.895-9.6484-9.6484-16.426-22.148-18.895-36.102h-215.4c-2.4727 13.953-9.25 26.453-18.895 36.102-9.6758 9.6172-22.18 16.41-36.102 18.895v188.79c4.1914 29.965 19.734 58.137 46.586 84.477 27.223 26.695 65.938 51.461 116.11 74.277 50.168-22.816 88.898-47.582 116.11-74.277z"/>
</svg>
