<?xml version="1.0" encoding="UTF-8"?>
<svg width="752pt" height="752pt" version="1.1" viewBox="0 0 752 752" xmlns="http://www.w3.org/2000/svg">
 <g>
  <path d="m187.66 580.27c22.25 0.54297 41.648-20.434 38.906-42.953 3.043-0.83203 5.8164-2.4453 8.0469-4.6758l17.188-17.188c8.043-8.043 27.223-27.223 35.059-35.059l26.27 26.27c3.1289 3.1016 7.3555 4.8398 11.762 4.8398s8.6328-1.7383 11.762-4.8398l10.418-10.418c0.90234-0.90234 1.4102-2.125 1.4102-3.4023s-0.50781-2.5-1.4102-3.4023l-24.551-24.559 53.52-53.52 53.52 53.52-24.559 24.559c-1.8789 1.8789-1.8789 4.9258 0 6.8047l10.418 10.418c3.1328 3.0977 7.3594 4.8398 11.762 4.8398 4.4062 0 8.6328-1.7422 11.762-4.8398l26.27-26.27 52.246 52.246h0.003906c2.2305 2.2305 5.0039 3.8398 8.0469 4.668-2.7461 22.52 16.66 43.5 38.906 42.957 34.207 0.39844 52.289-42.43 27.645-66.719v0.003907c-8.2852-8.2891-19.855-12.418-31.52-11.242-0.82812-3.0508-2.4375-5.8359-4.6758-8.0703l-52.246-52.246 26.27-26.27c3.1172-3.1211 4.8672-7.3516 4.8672-11.762s-1.75-8.6406-4.8672-11.762l-10.414-10.422c-1.8789-1.8789-4.9258-1.8789-6.8047 0l-24.555 24.555-53.52-53.516 116.18-116.18h-0.003906c0.60156-0.62891 1.0312-1.4023 1.2539-2.2422 0.55859-1.2383 4.7539-56.293 5.0938-57.438l-0.003906-0.003907c0.11328-1.4141-0.39844-2.8047-1.4023-3.8086-1.0039-1.0039-2.3945-1.5156-3.8086-1.4023l-56.691 4.9531c-1.1172 0.12891-2.1641 0.61719-2.9844 1.3906l-116.19 116.18-116.18-116.18c-0.62891-0.60156-1.4023-1.0352-2.2461-1.2539-1.2266-0.55859-56.297-4.7578-57.434-5.0938-1.4141-0.11328-2.8086 0.40234-3.8086 1.4062-1.0039 1.0039-1.5156 2.3945-1.4023 3.8086l4.9531 56.691h-0.003906c0.12891 1.1211 0.61719 2.168 1.3945 2.9844l116.18 116.18-53.52 53.527-24.555-24.555h-0.003906c-1.9062-1.8086-4.8945-1.8086-6.8047 0l-10.418 10.418c-3.1133 3.1211-4.8633 7.3516-4.8633 11.762 0 4.4102 1.75 8.6406 4.8633 11.762l26.27 26.27-52.246 52.246c-2.2383 2.2383-3.8516 5.0234-4.6797 8.0781-22.008-2.7422-43.496 16.16-42.965 38.883-0.55078 21.066 18.48 39.637 39.098 39.074zm397.59-59.918c26.605 28.555-13.129 68.277-41.68 41.676-26.562-28.559 12.98-68.277 41.676-41.676zm-34.117-15.93c-6.7539 2.4336-12.703 6.6875-17.195 12.285l-10.777-10.371c5.8984-4.6484 10.602-10.645 13.707-17.484 1.9062 2.3242 13.879 12.734 14.266 15.57zm-21.754-23.059c-2.3867 7.3125-7.0234 13.688-13.246 18.211l-16.062-15.461c5.8594-4.9648 10.68-11.039 14.188-17.875zm-22.344-22.34c-3.0039 6.8906-7.5547 13-13.297 17.859-1.9766-3.6836-2.4531-7.9922-1.3242-12.02l4.3906-16.074zm9.0234-67.039 7.0156 7.0156v-0.003906c2.7344 2.7383 2.7344 7.1719 0 9.9141l-68.844 68.84c-4.7617 0.92188-11.98-6.5898-14.625-9.3125zm30.957-210.16-4.0156 46.008-37.328-4.668-4.668-37.328zm-54.957 10.02 4.2383 33.895-94.387 94.391-19.066-19.066zm-245.67 31.324-37.324 4.668-4.0156-46.012 46.012 4.0195zm9.3789 2.5742 4.2383-33.895 209.81 209.8-24.586 13.543zm54.125 148.27 17.648 20.484-37.707 37.707-19.066-19.066zm-80.906 34.898c-2.7305-2.7422-2.7305-7.1719 0-9.9141l7.0156-7.0156 76.273 76.273c-2.5508 2.5898-9.7031 10.203-14.457 9.4883zm26.27 39.883 4.543 16.066c1.1328 4.0469 0.64844 8.3789-1.3555 12.074-5.793-4.8594-10.383-10.992-13.414-17.914zm-17.453 17.453h0.003907c3.5195 6.8633 8.3711 12.961 14.266 17.938l-16.082 15.477c-6.2578-4.5391-10.918-10.945-13.305-18.297zm-34.797 34.789 12.184-12.184h0.003906c3.1211 6.8711 7.8516 12.891 13.789 17.551l-10.793 10.387c-4.5-5.6406-10.473-9.9219-17.258-12.371 0.41797-1.2734 1.1289-2.4336 2.0742-3.3828zm-36.188 19.312c5.5312-5.5195 13.023-8.6172 20.836-8.6172 7.8164 0 15.309 3.0977 20.84 8.6172 26.566 28.664-12.953 68.223-41.68 41.676-11.43-10.969-11.43-30.707 0.003906-41.676z"/>
  <path d="m187.65 558.1c14.73 0.26172 22.633-18.469 11.961-28.863-3.1758-3.1641-7.4766-4.9414-11.961-4.9414-4.4805 0-8.7812 1.7773-11.957 4.9414-10.676 10.398-2.7656 29.125 11.957 28.863z"/>
  <path d="m564.41 558.1c14.73 0.26172 22.633-18.469 11.961-28.863-3.1758-3.1641-7.4766-4.9453-11.961-4.9453-4.4805 0-8.7812 1.7812-11.957 4.9453-10.676 10.395-2.7656 29.129 11.957 28.863z"/>
 </g>
</svg>
