<?xml version="1.0" encoding="UTF-8"?>
<svg width="752pt" height="752pt" version="1.1" viewBox="0 0 752 752" xmlns="http://www.w3.org/2000/svg">
 <path d="m303.97 341.12-14.711 36.645c-1.2148 3.0195-1.3906 6.3477-0.53125 9.4727l3.9961 14.371-5.1953 9.0273c-5.2227-0.11719-10.344 2.5586-13.141 7.3984 0 0-44.574 77.195-64.527 111.77-9.3242 16.133-3.7891 36.762 12.344 46.086l18.469 10.656c16.133 9.3242 36.762 3.7891 46.086-12.344l64.527-111.77c2.7383-4.75 2.5586-10.375 0-14.801l5.3281-9.2344s14.297-3.8164 14.297-3.8164c3.0938-0.82812 5.832-2.6484 7.8125-5.1641l24.375-31.062 40.152 23.191c1.6289 0.93359 3.4336 1.5547 5.2969 1.8203l39.441 5.6836c5.9805 0.875 11.898-1.9961 14.918-7.2383l59.199-102.55c3.0352-5.2383 2.5586-11.797-1.1836-16.547l-24.641-31.316c-1.168-1.4805-2.6055-2.7227-4.2344-3.6719l-51.266-29.598 7.3984-12.816c3.4023-5.875 2.3516-13.32-2.5312-18.039l-21.934-21.207c-1.7461-1.6875-3.8789-2.9141-6.2148-3.582l-29.332-8.3906c-6.5273-1.8633-13.496 0.94531-16.887 6.8242l-7.3984 12.816-51.266-29.598c-1.6289-0.93359-3.4336-1.5547-5.2969-1.8203l-39.441-5.6836c-5.9805-0.875-11.898 1.9961-14.918 7.2383l-59.199 102.55c-3.0352 5.2383-2.5586 11.797 1.1836 16.547l24.641 31.316c1.168 1.4805 2.6055 2.7227 4.2344 3.6719l40.152 23.176zm-11.352 104.53 16.281 9.3984 9.3516 5.4023-57.125 98.949c-1.1406 1.9844-3.6719 2.6484-5.6523 1.5078l-18.469-10.656c-1.9844-1.1562-2.6484-3.6719-1.5078-5.6523l57.125-98.949zm34.023-14.531-12.578-7.2656 7.3984-12.816c1.9844-3.4336 2.5156-7.5312 1.4492-11.367l-4.3203-15.523 11.277-28.074 47.344 27.336-18.734 23.855-15.449 4.1445c-3.7891 1.0078-7.0156 3.4922-8.9844 6.8984l-7.3984 12.816zm75.238-204.35-61.594-35.562-26.715-3.8477-49.18 85.172 16.695 21.207 48.793 28.164v0.015624l76.898 44.398h0.015625l48.777 28.164s26.715 3.8477 26.715 3.8477l49.18-85.172-16.695-21.207-61.609-35.562v-0.015624l-51.266-29.598h-0.015626zm14.547 34.023c-17.684-10.211-40.328-4.1289-50.539 13.543-10.211 17.684-4.1445 40.344 13.543 50.555 17.684 10.195 40.328 4.1289 50.539-13.555 10.211-17.672 4.1445-40.328-13.543-50.539zm-14.801 25.633c3.5352 2.043 4.75 6.5703 2.707 10.109-2.043 3.5352-6.5703 4.75-10.109 2.707-3.5352-2.043-4.75-6.5703-2.707-10.109 2.043-3.5352 6.5703-4.75 10.109-2.707zm27.883-77.891 1.6289-2.8125 14.668 4.2031 10.965 10.598-1.6289 2.8125z" fill-rule="evenodd"/>
</svg>
