<?xml version="1.0" encoding="UTF-8"?>
<svg width="752pt" height="752pt" version="1.1" viewBox="0 0 752 752" xmlns="http://www.w3.org/2000/svg">
 <g>
  <path d="m552.66 603.32c25.754 0.61719 52.625-13.125 53.41-45.457 0.39453-4.1367 5.3906-66.051-41.125-122.81-4.6289-5.6133-8.7031-11.66-12.168-18.059 3.2148-3.582 4.9922-8.2266 4.9922-13.043v-37.559c-0.007813-5.2539-2.1133-10.289-5.8555-13.98-3.7383-3.6953-8.7969-5.7383-14.055-5.6797 1.4922-20.578-1.2656-31.258 6.9102-47.07 6.3594-11.461 15.715-22.051 22.445-28.918l0.003906 0.003906c4.8945-4.9648 8.1445-11.309 9.3125-18.18l1.75-10.266h-0.003906c1.5781-9.332-1.6406-18.836-8.5625-25.293-19.223-18.055-27.883-35.715-31.77-47.348-1.6172-4.7266-4.8828-8.7188-9.1992-11.238-4.3125-2.5234-9.3906-3.4062-14.305-2.4961l-19.5 3.6211c-17.609 8.2891-34.742 30.328-43.586 41.969-20.477 29.715 4.2578 56.195 28.047 68.926h-0.003906c4.3281 2.4023 9.3828 3.1445 14.215 2.0859 4.8359-1.0586 9.1172-3.8477 12.043-7.8359 4.4883-6.5664 6.5625-14.484 5.8672-22.406-0.29688-2.3984-2.3281-4.2031-4.7422-4.2188-4.8398 0.11719-9.6406-0.92578-14-3.0352-6.1289-3.0391-7.8867-11.809-3.6328-17.113 6.1758-8.1406 17.508-8.3359 17.598-8.3359 30.801-1.3164 38.73 38.23 20.777 58.398v-0.003907c-6.7031 8.0938-12.883 16.609-18.504 25.488-4.668 7.3984-7.0547 16.008-6.8594 24.754l0.56641 28.527c-2.9492-0.042969-10.727 0.03125-13.781 0-4.7656 0.003906-9.3398 1.8984-12.711 5.2656-3.3711 3.3711-5.2695 7.9414-5.2773 12.707v19.23c0.003906 4.2266 1.6875 8.2812 4.6758 11.27s7.043 4.6719 11.273 4.6758h6.5117c-0.12891 4.1445 0 8.9375 1.9609 12.559-7.7305-1.5195-17.859-2.3672-26.797 0.55859-3.875-3.9375-12.891-16.844-13.449-42.02 19.938-21.438-0.0625-44.461-20.453-52.562-7.9219-3.2031-9.1094-13.121-16.168-17.398 8.2266-10.863 16.59-29.992 3.0977-54.949v-0.003906c-3.8281-6.9609-8.7617-13.258-14.609-18.637-8.5195-7.957-24.594-23.586-36.48-38.848-5.6641-7.3594-9.8086-15.77-12.199-24.742-1.6602-9.3867-9.75-16.68-19.641-14.93-55.879 7.9453-53.824 50.699-94.715 83.094-27.398 22.074-34.477 46.484-21.645 74.637 3.5195 7.7188 10.602 13.156 20.68 16.02-15.293 16.328-35.16 31.652-47.863 85.398-7.5742 5.293-33.695 27.395-27.605 77.516-5.1172 7.4922-23.867 39.121-21.789 98.168 0.16797 5.1016 2.3164 9.9375 5.9922 13.48 3.6758 3.5391 8.5859 5.5117 13.691 5.4883 0 0 380.25-0.20703 387.23 0.59766zm-59.242-213.05h-6.5117c-3.4922-0.003907-6.3203-2.832-6.3242-6.3242v-19.23c0.003906-4.6133 3.7461-8.3516 8.3594-8.3555h4.4766zm60.512 46.32c44.629 48.57 44.238 121.82 42.531 120.69-0.61719 24.402-18.594 35.344-39.191 36.246 34.516-38.832 10.613-120.14-10.902-150.58zm-50.887-36.695h22.754c2.625-0.046876 4.7305-2.1875 4.7305-4.8125 0-2.6289-2.1055-4.7695-4.7305-4.8125h-22.754v-12.141h22.754c2.625-0.046874 4.7305-2.1875 4.7305-4.8164 0-2.625-2.1055-4.7656-4.7305-4.8125h-22.754v-12.141h35.07-0.003907c5.5352 0.007813 10.023 4.4922 10.031 10.027v37.551c-0.007812 5.5352-4.4961 10.023-10.031 10.031h-25.031c-5.5352-0.011718-10.02-4.4961-10.031-10.031zm-0.76953 20.457c0.62109 0.40625 1.2617 0.77734 1.9258 1.1133 0.61719 28.746 2.2891 106.84 1.8281 134.46-16.938 5.7109-21.98-15.395-23.031-22.742-8.8867-46.113 8.625-91.32 19.277-112.83zm-62.492-17.117s6.3789 11.246 14.859 18.531h0.003907c-2.6094 2.4922-4.8398 5.3516-6.625 8.4844-3.0039 5.543 5.1523 10.199 8.3828 4.7266 2.5234-4.1445 5.918-7.6914 9.9453-10.395 4.5586-2.8789 9.4648 3.1172 5.9062 7.1719-12.629 14.383-25.414 39.438-24.859 81.75l0.003906-0.003906c0.0625 2.6367 2.2344 4.7344 4.875 4.6992 2.6367-0.035156 4.7578-2.1875 4.75-4.8242-0.36328-27.688 9.4023-50.621 17.895-65.254 0.69141-1.1953 2.1758-1.6719 3.4336-1.1055 1.2578 0.5625 1.8867 1.9883 1.4531 3.2969-14.348 42.957-18.582 88.203-1.0508 138.38-36.172-20.258-54.473-75.512-51.688-114.8 2.207-18.504-7.6484-27.57-8.0703-27.945-4.7227-4.0703-10.949 2.7695-6.4688 7.125 0.26562 0.25391 6.5664 6.3867 4.9805 19.68-3.0156 25.301 3.5273 53.305 4.0391 55.449 11.062 52.969-5.293 63.516-8.0156 64.887l-27.422 0.003906c9.6875-16.168 6.082-43.629 5.5352-47.367-0.19531-1.3164-0.92578-2.4922-2.0156-3.25-1.0938-0.75781-2.4492-1.0312-3.75-0.75781-2.5195 0.62109-4.1406 3.0664-3.7266 5.625 1.5 10.574 2.6562 38.195-8.8477 45.75h-50.555c-2.0898-3.793-2.4727-9.75-2.418-11.82 0.078124-6.3086-9.2852-6.6133-9.6211-0.29297h0.003906c-0.070312 4.1016 0.49219 8.1875 1.6641 12.117h-31.562c-5.2031-5.6094-5.5625-17.621-5.2227-22.051 0.38672-6.3125-9.0078-7.0547-9.5977-0.75781-0.14062 1.6836-0.85547 13.266 3.4922 22.809h-18.828c-23.031-15.016-19.648-35.578-12.652-50.297 5.5625-10.812 4.8945-23.52 4.6953-35.605 7.9375-7.1797 16.246-13.949 23.902-19.859-0.30078 6.832-0.54297 13.676-0.62109 19.223 0.023438 6.3164 9.4102 6.4961 9.6211 0.0625v0.074219l5.5391-30.188c1.7734-1.2734 3.4375-2.4531 4.9727-3.5312 3.4453 5.6133 11.391 16.02 26.828 24.684l-0.003907-0.003906c5.8086 3.3516 10.844 7.8867 14.781 13.316 2.8945 3.9648 7.543 6.2695 12.453 6.168 4.9062-0.10156 9.457-2.5898 12.188-6.6719 4.9531-7.6055 7.75-18.473 2.375-33.219 0 0 7.957-7.4727-0.33594-21.051-3.2656-4.7969-7.0273-9.6523-8.4141-14.996 9.0156-6.4453 18.395-12.48 27.68-18.027-0.96484 10.059-1.8125 22.805-1.8203 36.738-0.050781 2.625 1.9414 4.8438 4.5586 5.0703 1.3164 0.070313 2.6094-0.40234 3.5664-1.3125 0.95703-0.91016 1.5-2.1719 1.5-3.4922 0 0 4.3438-33.691 15.383-50.051 8.2266-4.3672 16.02-8.2461 23.016-11.59 3.4336-1.5273 14.926-5.668 19.91 4.6953zm-114.86-127.93c14.844-0.26562 28.746 7.7578 38.184 22.008 21.172 32.023-3.0625 68.586-3.25 68.863-0.73828 1.0352-18.137 25.723-24.098 55.508l0.003907-0.003906c-2.7734 13.555 0.77344 27.633 9.6367 38.258 0.71094 0.86328 0.81641 2.0742 0.26562 3.0469-0.93359 2.8867-7.8086 0.54297-8.2188 0.27734-27.945-27.238-16.492-59.598-1.5508-87.691 17.402-32.723 1.3633-62.77 0.67188-64.031-3.125-5.4531-11.359-1.0195-8.4492 4.6133 0.58594 1.0859 14.188 26.871-0.71875 54.898-15.684 29.492-29.422 67.406 3.5195 99.297 5.6719 7.0586 9.0273 14.137 9.9531 21.031 0.13672 0.92578-0.37891 1.8242-1.2461 2.1758-0.86719 0.35156-1.8594 0.0625-2.4062-0.69531-3.2695-4.707-7.6484-7.8867-13.195-11.914v-0.003907c-6.5312-4.5664-12.68-9.6562-18.387-15.219-23.055-22.781-6.2188-56.125-5.4922-57.555 14.734-22.48-6.9805-59.645 9.4453-74.648 5.1328-3.5586-0.019532-11.383-5.332-8.0117-23.07 17.93 0.28906 54.945-12.289 77.543-1.793 1.7188-6.7383 5.4961-9.168 3.0547v-0.007813c-0.86328-0.89453-1.1211-2.2148-0.66016-3.3711 4.5742-12.242 0.24609-25.77 0.058594-26.344-10.719-29.594-7.6016-47 3.5234-74.637 10.336-25.684 37.926-26.422 39.199-26.441zm-27.898-40.863c4.8164-7.4727 15.984-21.668 30.855-20.613 18.312 1.3008 20.152 18.715 30.734 27.648-0.26562 13.148-0.22266 24.148-1.9297 34.922-16.715-11.84-34.594-15.473-58.422-3.0781-0.56641-10.301-0.97266-23.102-1.2383-38.879zm51.703 238.42 0.082032-0.042969-0.015625 0.035156zm70.684-141.47c8.7891 6.6875 22.938 21.555 10.941 41.926-16.254 7.1133-39.445 17.41-66.648 29.918v0.003907c4.2383-11.012 9.8398-21.449 16.672-31.07 19.949-29.109 7.1641-60.312 2.9336-68.93 6.4336 0.92187 12.793 1.6836 19.07 2.2812l-0.066406 0.015624s9.1172 2.3828 10.898 15.203h-0.003907c0.57422 4.2305 2.8047 8.0625 6.1992 10.656zm-190.68-65.43c3.332-8.332 9.8398-17.238 21.277-26.453 18.629-15.016 32.113-34.504 40.145-48.207 10.566-18.062 28.926-30.191 49.688-32.824 5.6484-1.043 8.2031 3.0312 9.207 7.9219 5.918 26.48 36.742 53.711 51.398 68.074 11.84 10.742 17.984 23.957 18.414 36.391-22.613 1.2734-31.07-13.086-33.758-18.066-3.832-8.2773-12.277-16.527-17.309-24.605-9.5469-16.156-20.035-34.625-41.18-34.355-20.559-0.5-31.41 16.664-41.695 31.875v0.003906c-6.3945 9.6484-13.66 18.688-21.711 27.004-4.6367 4.8164-16.316 16.523-34.477 13.242zm-45.938 216.55c7.9062-8.4844 22.223-22.371 38.312-30.973 5.5234-3.0742 1.0938-11.379-4.5391-8.4883-10.266 5.7031-19.812 12.625-28.426 20.613-1.6172-16.199 2.1836-32.48 10.812-46.289 10.086-8.0352 22.395-12.785 34.461-17.75 6.0273-1.9141 3.3359-10.938-2.7656-9.2188-4.7422 1.5234-9.3633 3.3984-13.824 5.6094 12.789-53.652 47.656-77.777 54.258-82.219-15.629 47.516 9.2266 60.91 2.0508 85.574 0 0-10.145 15.281 4.1445 28.184l-0.003906-0.003906c-1.4062 6.4883-1.8438 13.148-1.2969 19.766-54.234 34.699-84.074 69.852-99.238 109.08v-0.003907c-5.9961-24.637-3.8711-50.547 6.0547-73.879z"/>
  <path d="m320.36 243.84c-3.2734-2.0586-8.7812-3.9297-10.551 1.0859h-0.003907c-0.39844 1.2148-0.30078 2.5352 0.27344 3.6758 0.57422 1.1367 1.5781 2.0039 2.793 2.4023 1.9414 0.52344 3.1406 1.8281 5.0469 1.8008h-0.003906c2.1562-0.035157 4.0273-1.4844 4.5938-3.5625 0.56641-2.0781-0.30859-4.2812-2.1484-5.4023z"/>
  <path d="m337.84 252.8c1.9102 0.027343 3.1016-1.2734 5.0469-1.8008 1.2109-0.39844 2.2148-1.2656 2.7891-2.4023 0.57812-1.1406 0.67578-2.4609 0.27344-3.6758-1.7734-5.0156-7.2812-3.1484-10.555-1.0859h0.003906c-1.8398 1.1211-2.7188 3.3242-2.1523 5.4023 0.56641 2.0781 2.4414 3.5273 4.5938 3.5625z"/>
  <path d="m270.71 521.98c-6.4336 0.10938-6.4297 9.6797 0 9.7891 6.4336-0.11328 6.4297-9.6797 0-9.7891z"/>
 </g>
</svg>
